<mxfile host="app.diagrams.net" modified="2023-12-14T21:55:09.012Z" agent="Mozilla/5.0 (Macintosh; Intel Mac OS X 10_15_7) AppleWebKit/537.36 (KHTML, like Gecko) Chrome/120.0.0.0 Safari/537.36" etag="zKUJLn_4fohFTiEsH4PN" version="22.1.9" type="google">
  <diagram name="Page-1" id="55a83fd1-7818-8e21-69c5-c3457e3827bb">
    <mxGraphModel grid="1" page="1" gridSize="10" guides="1" tooltips="1" connect="1" arrows="1" fold="1" pageScale="1" pageWidth="1100" pageHeight="850" background="none" math="0" shadow="0">
      <root>
        <mxCell id="0" />
        <mxCell id="1" parent="0" />
        <mxCell id="69ecfefc5c41e42c-13" value="" style="html=1;fillColor=#CCCCCC;strokeColor=#6881B3;gradientColor=none;gradientDirection=north;strokeWidth=2;shape=mxgraph.networks.comm_link_edge;html=1;labelBackgroundColor=none;endArrow=none;fontFamily=Verdana;fontSize=22;fontColor=#000000;" edge="1" parent="1">
          <mxGeometry width="100" height="100" relative="1" as="geometry">
            <mxPoint x="360" y="625" as="sourcePoint" />
            <mxPoint x="473.01020408163254" y="460" as="targetPoint" />
            <Array as="points">
              <mxPoint x="397.5" y="505" />
            </Array>
          </mxGeometry>
        </mxCell>
        <mxCell id="4zkYDu2Evc27YB6WKq_G-1" value="" style="fontColor=#0066CC;verticalAlign=top;verticalLabelPosition=bottom;labelPosition=center;align=center;html=1;outlineConnect=0;fillColor=#CCCCCC;strokeColor=#6881B3;gradientColor=none;gradientDirection=north;strokeWidth=2;shape=mxgraph.networks.storage;" vertex="1" parent="1">
          <mxGeometry x="650" y="230" width="100" height="100" as="geometry" />
        </mxCell>
        <mxCell id="4zkYDu2Evc27YB6WKq_G-3" value="" style="fontColor=#0066CC;verticalAlign=top;verticalLabelPosition=bottom;labelPosition=center;align=center;html=1;outlineConnect=0;fillColor=#CCCCCC;strokeColor=#6881B3;gradientColor=none;gradientDirection=north;strokeWidth=2;shape=mxgraph.networks.server;" vertex="1" parent="1">
          <mxGeometry x="450" y="320" width="90" height="100" as="geometry" />
        </mxCell>
        <mxCell id="4zkYDu2Evc27YB6WKq_G-5" value="" style="fontColor=#0066CC;verticalAlign=top;verticalLabelPosition=bottom;labelPosition=center;align=center;html=1;outlineConnect=0;fillColor=#CCCCCC;strokeColor=#6881B3;gradientColor=none;gradientDirection=north;strokeWidth=2;shape=mxgraph.networks.pc;" vertex="1" parent="1">
          <mxGeometry x="510" y="630" width="100" height="70" as="geometry" />
        </mxCell>
        <mxCell id="4zkYDu2Evc27YB6WKq_G-6" value="" style="fontColor=#0066CC;verticalAlign=top;verticalLabelPosition=bottom;labelPosition=center;align=center;html=1;outlineConnect=0;fillColor=#CCCCCC;strokeColor=#6881B3;gradientColor=none;gradientDirection=north;strokeWidth=2;shape=mxgraph.networks.pc;" vertex="1" parent="1">
          <mxGeometry x="300" y="630" width="100" height="70" as="geometry" />
        </mxCell>
        <mxCell id="4zkYDu2Evc27YB6WKq_G-7" value="" style="fontColor=#0066CC;verticalAlign=top;verticalLabelPosition=bottom;labelPosition=center;align=center;html=1;outlineConnect=0;fillColor=#CCCCCC;strokeColor=#6881B3;gradientColor=none;gradientDirection=north;strokeWidth=2;shape=mxgraph.networks.comm_link;rotation=-15;" vertex="1" parent="1">
          <mxGeometry x="525" y="470" width="50" height="140" as="geometry" />
        </mxCell>
        <mxCell id="4zkYDu2Evc27YB6WKq_G-9" style="edgeStyle=orthogonalEdgeStyle;rounded=0;orthogonalLoop=1;jettySize=auto;html=1;entryX=0;entryY=0.5;entryDx=0;entryDy=0;entryPerimeter=0;" edge="1" parent="1" source="4zkYDu2Evc27YB6WKq_G-3" target="4zkYDu2Evc27YB6WKq_G-1">
          <mxGeometry relative="1" as="geometry" />
        </mxCell>
        <mxCell id="4zkYDu2Evc27YB6WKq_G-11" value="&lt;font style=&quot;font-size: 24px;&quot;&gt;Client 1&lt;/font&gt;" style="text;strokeColor=none;align=center;fillColor=none;html=1;verticalAlign=middle;whiteSpace=wrap;rounded=0;" vertex="1" parent="1">
          <mxGeometry x="300" y="730" width="110" height="50" as="geometry" />
        </mxCell>
        <mxCell id="4zkYDu2Evc27YB6WKq_G-12" value="&lt;font style=&quot;font-size: 24px;&quot;&gt;Client 2&lt;/font&gt;" style="text;strokeColor=none;align=center;fillColor=none;html=1;verticalAlign=middle;whiteSpace=wrap;rounded=0;" vertex="1" parent="1">
          <mxGeometry x="510" y="740" width="110" height="30" as="geometry" />
        </mxCell>
        <mxCell id="4zkYDu2Evc27YB6WKq_G-13" value="&lt;font style=&quot;font-size: 24px;&quot;&gt;Family Feud Server&lt;/font&gt;" style="text;strokeColor=none;align=center;fillColor=none;html=1;verticalAlign=middle;whiteSpace=wrap;rounded=0;" vertex="1" parent="1">
          <mxGeometry x="390" y="420" width="245" height="55" as="geometry" />
        </mxCell>
        <mxCell id="4zkYDu2Evc27YB6WKq_G-14" value="&lt;font style=&quot;font-size: 24px;&quot;&gt;Questions Database&lt;/font&gt;" style="text;strokeColor=none;align=center;fillColor=none;html=1;verticalAlign=middle;whiteSpace=wrap;rounded=0;" vertex="1" parent="1">
          <mxGeometry x="610" y="330" width="240" height="55" as="geometry" />
        </mxCell>
      </root>
    </mxGraphModel>
  </diagram>
</mxfile>
